<svg id="OBJECTS" xmlns="http://www.w3.org/2000/svg" viewBox="0 0 500 500"><defs><style>.cls-1{fill:#332e6b;}.cls-2{fill:#3b367d;}.cls-3{fill:#00b7a8;}.cls-4{fill:#00a698;}.cls-5{fill:#096386;}.cls-6{fill:#00577a;}.cls-7{fill:#ff8b6a;}.cls-8{fill:#dedcb9;}.cls-9{fill:#f77651;}.cls-10{fill:#085a7a;}.cls-11{fill:#074f6b;}.cls-12{fill:#4f95b0;}</style></defs><path class="cls-1" d="M197.61,433.49c.75-.68,1.73.58,1.94,1.57A66.89,66.89,0,0,1,201,445.78c.24,4.38-.19,9.31-3.5,12.19-3.87,3.37-9.84,2.36-14.61.45a12.43,12.43,0,0,0-3.24-1c-2.42-.27-4.69,1-6.84,2.16-10.06,5.27-24.76,7.7-36.09,6.92-1.35-.09-3.1-.66-3-2a2.59,2.59,0,0,1,1-1.65c5.59-5.33,12.76-8.63,19.3-12.75s16-9.6,18.08-17.05"/><path class="cls-1" d="M141.06,468.29c-1.51,0-3-.05-4.46-.15-2.82-.19-4.66-1.69-4.58-3.73a4.2,4.2,0,0,1,1.52-2.78c4.13-3.94,9.09-6.8,13.88-9.57,1.91-1.11,3.82-2.21,5.68-3.38l1.35-.85c6-3.76,14.26-8.91,16-15.24a1.66,1.66,0,0,1,3.19.89C171.55,441,163,446.36,156.2,450.64l-1.34.84c-1.89,1.19-3.84,2.32-5.78,3.44-4.84,2.8-9.41,5.44-13.26,9.11a2,2,0,0,0-.5.57c.06-.08.64.18,1.51.24,11.84.81,26-1.89,35.21-6.73l.38-.21c2.18-1.14,4.63-2.43,7.41-2.13a12.32,12.32,0,0,1,3.39,1l.29.12c3.25,1.3,9.26,3,12.91-.17,2.26-2,3.22-5.52,2.93-10.85a65.47,65.47,0,0,0-1.41-10.45,1,1,0,0,0-.11-.29,1.65,1.65,0,0,1-1.34-2.86,2.29,2.29,0,0,1,2.31-.51,4,4,0,0,1,2.37,2.95,68.8,68.8,0,0,1,1.48,11c.35,6.41-1,10.83-4.06,13.51-3.69,3.22-9.49,3.48-16.31.74l-.3-.12a10.28,10.28,0,0,0-2.51-.78c-1.76-.19-3.67.81-5.5,1.78l-.4.2C165,465.53,152.41,468.29,141.06,468.29Z"/><path class="cls-2" d="M255.31,433.34c.75-.69,1.73.57,1.94,1.57a66.73,66.73,0,0,1,1.45,10.72c.24,4.37-.19,9.31-3.5,12.18-3.87,3.38-9.84,2.37-14.61.45a12.41,12.41,0,0,0-3.24-1c-2.42-.27-4.69,1-6.84,2.16-10.06,5.27-24.76,7.69-36.09,6.92-1.35-.1-3.1-.66-3-2a2.56,2.56,0,0,1,1-1.65c5.59-5.34,12.76-8.63,19.3-12.76s16-9.6,18.08-17"/><path class="cls-2" d="M198.75,468.13c-1.51,0-3-.05-4.45-.15-2.82-.19-4.66-1.69-4.58-3.72a4.17,4.17,0,0,1,1.52-2.78c4.13-3.94,9.08-6.8,13.87-9.57,1.91-1.1,3.83-2.21,5.69-3.38l1.35-.85c6-3.76,14.26-8.91,16-15.25a1.66,1.66,0,0,1,3.19.89c-2.11,7.57-10.62,12.89-17.46,17.16l-1.34.84c-1.9,1.2-3.84,2.33-5.8,3.45-4.83,2.8-9.4,5.44-13.24,9.1a2,2,0,0,0-.5.58c0-.1.64.18,1.51.24,11.82.81,26-1.9,35.21-6.74l.39-.2c2.17-1.15,4.62-2.44,7.4-2.14a12.87,12.87,0,0,1,3.4,1l.28.11c3.25,1.3,9.25,3,12.91-.16,2.26-2,3.22-5.52,2.93-10.85a65.75,65.75,0,0,0-1.41-10.46,1.31,1.31,0,0,0-.11-.29,1.65,1.65,0,0,1-1.33-2.86,2.3,2.3,0,0,1,2.29-.51,4.05,4.05,0,0,1,2.38,2.95,70.12,70.12,0,0,1,1.48,11c.35,6.42-1,10.84-4.06,13.52-3.69,3.21-9.48,3.47-16.31.74l-.29-.12a10,10,0,0,0-2.52-.78c-1.75-.19-3.58.76-5.5,1.77l-.4.21C222.69,465.38,210.11,468.13,198.75,468.13Z"/><path class="cls-2" d="M184,145.16c2.41-16.68,2.37-36.33,12.76-44.92C228.91,73.67,313.85,82.64,328.6,91c23.31,13.2,31.89,113.89,21.7,145L184,234.5V145.16"/><path class="cls-2" d="M350.3,237.59h0L184,236.15a1.66,1.66,0,0,1-1.64-1.65V145.16a1.94,1.94,0,0,1,0-.24c.46-3.19.83-6.49,1.21-9.8,1.59-14.15,3.23-28.79,12.14-36.16,33.63-27.82,119.44-17.46,133.68-9.41,25.12,14.23,32.13,117.4,22.45,146.9A1.65,1.65,0,0,1,350.3,237.59Zm-164.62-4.73,163.41,1.41c9.67-32.43.56-129.47-21.3-141.84-13.41-7.6-98-17.34-130,9.08-7.87,6.51-9.44,20.48-11,34-.37,3.3-.74,6.6-1.2,9.79Z"/><path class="cls-1" d="M348.94,137.21C333.93,117.84,314,106,298,101.67A201.12,201.12,0,0,0,278.2,97a105.45,105.45,0,0,0-28-.78,125.11,125.11,0,0,0-47.27,15.13,138.77,138.77,0,0,0-15.87,10.28c-1.32,7.56-1.93,15.84-3,23.5V234.5l166.27,1.44C357.67,213.48,359.67,173.08,348.94,137.21Z"/><path class="cls-1" d="M350.3,237.59h0L184,236.15a1.66,1.66,0,0,1-1.64-1.65V145.16c.48-3.43.86-6.72,1.23-10,.52-4.58,1.05-9.31,1.83-13.75a1.62,1.62,0,0,1,.64-1,139.1,139.1,0,0,1,16.07-10.41A127.51,127.51,0,0,1,250,94.6a107,107,0,0,1,28.44.8c6.9,1.14,13.85,3,20,4.67,18.86,5.11,38.22,18.61,51.79,36.13a1.55,1.55,0,0,1,.28.54c11.17,37.3,8.53,77.84,1.35,99.71A1.65,1.65,0,0,1,350.3,237.59Zm-164.62-4.73,163.42,1.41c6.72-21.59,9-60.39-1.66-96.29-13.13-16.85-31.75-29.82-49.86-34.71a198.94,198.94,0,0,0-19.65-4.61,103.8,103.8,0,0,0-27.56-.77,124.32,124.32,0,0,0-46.64,14.94,137.41,137.41,0,0,0-15.15,9.76c-.71,4.17-1.21,8.61-1.7,12.91-.37,3.34-.75,6.67-1.22,9.89Z"/><path class="cls-3" d="M310.57,187.13c10.35-.73,23.61,5.84,33.92,7.06.84-14.61.23-48.07-16.32-65.31-5.83-6.06-18.29-13.8-26.48-15.66l-26.1-5.91-35.7,1.5c-14.24,3.78-28.78,7.7-41.12,16.67A56.52,56.52,0,0,0,181,146.91l-.93,87.55,135.62,1.48Z"/><path class="cls-3" d="M315.67,237.21h0L180,235.73a1.27,1.27,0,0,1-1.25-1.29l.93-87.55a1.17,1.17,0,0,1,.12-.52A58,58,0,0,1,198,124.45c12.68-9.21,27.35-13.1,41.54-16.87l.27,0,35.71-1.5a.89.89,0,0,1,.33,0L302,112c8.84,2,21.39,10,27.11,16,17.94,18.68,17.31,55.44,16.68,66.27a1.27,1.27,0,0,1-.45.9,1.25,1.25,0,0,1-1,.28,87.57,87.57,0,0,1-14-3.37c-6.3-1.86-12.71-3.72-18.39-3.74l5,47.47a1.27,1.27,0,0,1-1.27,1.4Zm-134.34-4,132.93,1.45-5-47.39a1.3,1.3,0,0,1,.29-.95,1.29,1.29,0,0,1,.89-.45c6.32-.45,13.59,1.71,20.6,3.78a98.33,98.33,0,0,0,12.22,3.1c.55-12,.49-45.76-16.05-63-5.47-5.69-17.68-13.45-25.84-15.3l-25.93-5.87-35.4,1.49c-13.92,3.69-28.31,7.52-40.56,16.43a55.37,55.37,0,0,0-17.27,20.69Z"/><path class="cls-4" d="M255.86,220.61c-26.57-13-49.84-56.27-64.25-88.91A55.62,55.62,0,0,0,181,146.91l-.8,75C232.45,228,277.12,231,255.86,220.61Z"/><path class="cls-4" d="M247.79,228.71c-11.29,0-31.48-1.33-67.75-5.5a1.26,1.26,0,0,1-1.13-1.27l.8-75.05a1.17,1.17,0,0,1,.12-.52,56.27,56.27,0,0,1,10.88-15.56,1.27,1.27,0,0,1,2.07.38c14.68,33.25,37.63,75.56,63.64,88.28,4.78,2.34,6.59,4.14,6,6C262.1,226.74,261.52,228.71,247.79,228.71Zm-66.32-7.89c69.29,7.91,77.67,5,78.56,3.92h0c-.1,0-.66-1-4.73-3h0c-26.24-12.83-49.2-54.43-64.08-87.79a53.44,53.44,0,0,0-9,13.24Z"/><path class="cls-2" d="M156.44,443.19l-.31,0a2.54,2.54,0,0,1-2.22-2.83L171.4,298.17a2.54,2.54,0,0,1,5,.62L159,441A2.54,2.54,0,0,1,156.44,443.19Z"/><path class="cls-2" d="M280.32,298.12c.83.89,33.8-.14,35,0,17.51,2,30.39-27.91,31.78-41.22L354,246.78l-83,6.93Z"/><path class="cls-2" d="M288.13,300.14c-8.18,0-8.49-.33-9-.89a1.63,1.63,0,0,1-.41-.79l-9.33-44.41a1.62,1.62,0,0,1,.29-1.33,1.64,1.64,0,0,1,1.19-.66l83-6.92a1.65,1.65,0,0,1,1.5,2.57l-6.61,9.78c-1.22,10.34-8.51,28.86-19.36,37.56-4.59,3.68-9.37,5.27-14.21,4.71-.43,0-3.91,0-7.61.11C298.37,300.05,292.25,300.14,288.13,300.14Zm-6.42-3.44c3.85.3,18.42,0,25.75-.13,6.06-.12,7.64-.14,8.06-.09,3.91.44,7.89-.9,11.76-4,10.16-8.15,17.21-26.3,18.19-35.74a1.66,1.66,0,0,1,.27-.75l4.91-7.26L273,255.2Z"/><path class="cls-2" d="M328,443.19a2.54,2.54,0,0,1-2.54-2.44l-6-149.43a2.54,2.54,0,0,1,5.08-.2l6,149.42a2.54,2.54,0,0,1-2.44,2.65Z"/><path class="cls-1" d="M283.73,271l-6.57,12,3.16,15.06c.54.58,14.69.34,24.85.15,11.09-8.89,22.12-19.94,27.22-32.77,3.23-8.13,1.07-13.56-3.59-16.62l-30.23,2.53C292.11,256.2,287.68,263.79,283.73,271Z"/><path class="cls-1" d="M288.35,300.14c-8.4,0-8.72-.34-9.24-.89a1.7,1.7,0,0,1-.4-.79l-3.17-15.06a1.67,1.67,0,0,1,.17-1.14l6.57-12c4.08-7.48,8.63-15.2,15.3-20.15a1.56,1.56,0,0,1,.85-.32l30.23-2.52a1.58,1.58,0,0,1,1,.26c3.44,2.26,8.56,7.68,4.22,18.61-4.4,11.1-13.47,22-27.72,33.45a1.68,1.68,0,0,1-1,.36C297.48,300.07,292.11,300.14,288.35,300.14Zm-8-2h0Zm1.39-1.42c3.7.28,17.36,0,22.86-.07,13.54-10.92,22.13-21.3,26.28-31.74,2.52-6.35,1.66-11.29-2.5-14.31L299.18,253c-5.94,4.57-10.17,11.79-14,18.8h0l-6.28,11.5Zm2-25.68h0Z"/><path class="cls-5" d="M246.89,263.23c-9.39,6.54-34.52,15.61-34.52,40.65,0,46.6,12.93,82.69,17.63,129.05,6.28,4.4,22.44,5.46,26.88-.79s9.72-115.43,11.94-120.46c2.05-4.66,8-9.84,11.5-13.56,10.73-11.53,36-22.85,39.54-43h-134c-7.57,5.18-25.45,16.62-28.38,40.4-3.69,30,3.32,40.18,6.42,69.83,1.34,12.78,2.7,12.83,4,25.61q1.08,10.17,2.13,20.34c.33,3.23,0,20.24,2.23,21.81,6.28,4.41,22.44,5.47,26.88-.78s.3-74.52,4.49-117.72c0,0,3.15-10.31,8.7-10.7"/><path class="cls-5" d="M186.64,438c-5.74,0-11.71-1.48-15.07-3.83-1.87-1.32-2.33-6.91-2.6-18.17-.05-2-.09-3.79-.17-4.56q-1.05-10.17-2.12-20.34a108.77,108.77,0,0,0-2-12.67,108.24,108.24,0,0,1-2-12.94c-1.07-10.19-2.63-18.2-4-25.26-2.71-14-4.86-25-2.42-44.85,2.9-23.61,20-35.21,28.19-40.79l1.06-.73h135.9l-.26,1.49c-2.55,14.48-15.59,24.33-27.09,33-4.91,3.71-9.55,7.21-12.77,10.66-.83.9-1.81,1.88-2.84,2.91-3.26,3.27-7,7-8.43,10.3-.81,1.91-2.35,22.93-3.84,43.25-3.14,43-5.57,73.72-8.22,77.44-5,7-22,5.76-28.65,1.09l-.48-.33,0-.58c-1.9-18.76-5.19-36-8.36-52.63-4.68-24.57-9.1-47.8-9.28-74.91-3.16,1.51-5.51,7.11-6.21,9.43-2,20.89-2,47.53-2.09,71-.05,27.81-.2,43.7-2.58,47S192.3,438,186.64,438Zm-.38-181.59-.42.28c-7.9,5.37-24.33,16.54-27.09,39-2.4,19.46-.29,30.31,2.39,44.05,1.38,7.12,3,15.19,4,25.49a106.16,106.16,0,0,0,2,12.68,111,111,0,0,1,2,12.92c.71,6.79,1.42,13.56,2.12,20.35.09.87.13,2.59.18,4.76.11,4.45.36,14.85,1.57,16.18,5.7,4,21,5.15,25.07-.52,2-2.85,2.06-23.61,2.1-45.58,0-23.57.09-50.27,2.15-71.53.38-1.3,3.24-10.15,8.71-11.64.57-20.63,17.6-30.41,28.94-36.91,2.42-1.39,4.5-2.59,6.11-3.71l1.46,2.09c-1.7,1.18-3.84,2.4-6.31,3.82-11,6.33-27.67,15.89-27.67,35.78,0,27.58,4.49,51.13,9.24,76.07,3.15,16.53,6.4,33.62,8.32,52.25,6.08,3.78,20.72,4.73,24.65-.79,2.44-3.43,5.64-47.2,7.75-76.16,2-26.73,3.11-41.95,4.06-44.09,1.66-3.76,5.53-7.64,8.95-11.06,1-1,2-2,2.78-2.85,3.37-3.62,8.09-7.18,13.1-11,10.71-8.09,22.8-17.21,25.81-29.92Z"/><path class="cls-6" d="M219.63,255.09c-.55.37-1.12.73-1.64,1.14-11.67,9.12-23.94,19.87-29,34.22-2.54,7.27-3.09,15.06-3.61,22.74-1.79,26.31-1.5,109.33,3.29,123.42,4.52-.3,8.6-1.63,10.51-4.31,4.45-6.25.3-74.52,4.49-117.72,0,0,3.15-10.31,8.7-10.7,0,1.93-11.31-12.66,20-34.28,8-6,19.26-8.34,26.57-14.51Z"/><path class="cls-6" d="M187.78,438l-.32-.93c-4.93-14.52-5.06-98.76-3.35-123.92.52-7.67,1.07-15.6,3.68-23.07,5.05-14.32,17.12-25.19,29.42-34.8.51-.41,1.07-.77,1.62-1.13l.31-.2.49-.08h42.82l-2.66,2.25c-3.94,3.32-9,5.56-13.9,7.74-4.42,2-9,4-12.72,6.8C215.26,283,212,292.66,211.69,297.34a9.32,9.32,0,0,0,.91,5.25l1-.07v2.4l-1.1.38a1.44,1.44,0,0,1-.72,0c-3.52.92-6.17,7.2-6.93,9.69-2,20.89-2,47.53-2.09,71-.05,27.81-.2,43.7-2.58,47-2,2.77-6,4.49-11.47,4.85ZM220,256.37c-.42.27-.84.55-1.24.86-12,9.38-23.75,19.94-28.58,33.65-2.5,7.14-3,14.9-3.54,22.4-1.88,27.57-1.4,106,2.94,122,4.09-.43,7.18-1.76,8.56-3.7,2-2.85,2.06-23.61,2.1-45.58,0-23.57.09-50.27,2.15-71.53.35-1.21,2.87-9,7.66-11.25a1,1,0,0,1-.07-.15c-1.07-2.52-5.07-16,21.69-34.5,3.91-2.95,8.62-5,13.18-7.07a79,79,0,0,0,10.21-5.11Z"/><path class="cls-2" d="M212.37,305.54a1.66,1.66,0,0,1-1.66-1.66c0-22.55,24.68-38.09,37.94-46.45,2-1.24,3.66-2.3,4.92-3.18a1.65,1.65,0,1,1,1.89,2.71c-1.29.9-3,2-5.05,3.27-12.72,8-36.39,22.93-36.39,43.65A1.65,1.65,0,0,1,212.37,305.54Z"/><path class="cls-6" d="M319.86,255.09H304.59c-14.88,7.1-46.59,24.22-51.43,43.39-5.31,21-5.45,109.27-5.36,137.85,3.94-.47,7.38-1.79,9.08-4.19,4.45-6.25,9.72-115.43,11.94-120.46,2.05-4.66,8-9.84,11.5-13.56C291.05,286.59,316.3,275.27,319.86,255.09Z"/><path class="cls-6" d="M246.54,437.76v-1.43c-.09-27,0-116.88,5.4-138.16C256.77,279,286.66,262.23,304,254l.55-.13h16.78l-.26,1.49c-2.55,14.48-15.59,24.33-27.09,33-4.91,3.71-9.55,7.21-12.77,10.66-.83.9-1.81,1.88-2.84,2.91-3.26,3.27-7,7-8.43,10.3-.81,1.91-2.35,22.93-3.84,43.25-3.14,43-5.57,73.72-8.22,77.44-2.26,3.18-6.67,4.32-10,4.71Zm58.34-181.39c-13.82,6.6-45.76,23.7-50.49,42.43-5.2,20.61-5.4,107.46-5.32,136.05,3.22-.59,5.6-1.79,6.78-3.45,2.44-3.42,5.64-47.19,7.75-76.15,2-26.73,3.11-41.95,4.06-44.09,1.66-3.76,5.53-7.64,8.95-11.06,1-1,2-2,2.78-2.85,3.37-3.62,8.09-7.18,13.1-11,10.71-8.09,22.8-17.22,25.81-29.92Z"/><path class="cls-4" d="M219.82,226.11c-.79,2.41,1,5,3.28,6.24s5.06,3.85,7.7,3.93c22.83.71,45.66-.71,68.5,0,2.86.09,6.14-.41,8-2.52a8.65,8.65,0,0,0,1.61-4,163.15,163.15,0,0,0,2.84-46.81c-.62-7.36-.79-11.48-8-5.88-5.12,4-9.4,9.45-14.3,13.75a167.68,167.68,0,0,1-32.39,22.67,127.93,127.93,0,0,1-18,7.85C237,222,220.1,225.25,219.82,226.11Z"/><path class="cls-4" d="M245.29,237.76c-4.85,0-9.71-.06-14.53-.21-2.16-.06-4.22-1.46-6-2.68a23.81,23.81,0,0,0-2.2-1.39c-2.68-1.37-5-4.56-3.91-7.76h0c.32-1,.4-1.25,13.61-4.13,2.94-.64,5.72-1.25,6.39-1.48a127.06,127.06,0,0,0,17.85-7.77,167,167,0,0,0,32.15-22.5c2.1-1.84,4.13-4,6.09-6A81.4,81.4,0,0,1,303,176c3.28-2.56,5.39-3.34,7.06-2.61,2.26,1,2.53,4.32,2.92,8.92l0,.47A164.51,164.51,0,0,1,310.12,230a9.62,9.62,0,0,1-1.89,4.6c-2.26,2.61-6.13,3.07-9,3-11.39-.35-23-.17-34.19,0C258.57,237.66,251.94,237.76,245.29,237.76Zm-24.36-10.83c-.26,1.68,1.12,3.46,2.75,4.29a25.83,25.83,0,0,1,2.47,1.54c1.6,1.09,3.26,2.21,4.69,2.25,11.39.36,23,.18,34.2,0s22.85-.36,34.3,0c1.87.08,5.28-.13,7-2.08a7.65,7.65,0,0,0,1.32-3.46A161.52,161.52,0,0,0,310.45,183l0-.48c-.25-3-.53-6.42-1.4-6.8-.24-.1-1.25-.23-4.48,2.29a79.11,79.11,0,0,0-8,7.58c-2,2.07-4.06,4.22-6.24,6.13a170.48,170.48,0,0,1-32.64,22.84,129.29,129.29,0,0,1-18.21,7.92c-.77.27-3,.77-6.68,1.56C228.88,224.92,222.58,226.3,220.93,226.93Z"/><rect class="cls-2" x="106.6" y="255.09" width="5.54" height="208.83"/><path class="cls-2" d="M112.14,465.57H106.6a1.65,1.65,0,0,1-1.65-1.65V255.09a1.65,1.65,0,0,1,1.65-1.65h5.54a1.65,1.65,0,0,1,1.65,1.65V463.92A1.65,1.65,0,0,1,112.14,465.57Zm-3.88-3.3h2.23V256.75h-2.23Z"/><rect class="cls-2" x="375.65" y="255.09" width="5.54" height="208.83"/><path class="cls-2" d="M381.18,465.57h-5.53a1.65,1.65,0,0,1-1.66-1.65V255.09a1.65,1.65,0,0,1,1.66-1.65h5.53a1.65,1.65,0,0,1,1.66,1.65V463.92A1.65,1.65,0,0,1,381.18,465.57Zm-3.88-3.3h2.23V256.75H377.3Z"/><path class="cls-7" d="M344.21,183.17c3.1,13.07.81,27.11-1.95,40.25-1.61,7.66-4.95,16-12.16,19-5.89,2.48-12.66.69-18.59-1.68a101.78,101.78,0,0,1-31.65-20.08c-6.36-5.94-12.08-12.79-19.7-17s-20.5-4-26.81,2c-4.44-.1-2-18.86-2-18.86,26.26-2.09,56,5.34,78.41,19.22l.8-3.53c-.27-14.24.28-7,0-21.2Z"/><path class="cls-7" d="M323.85,244.86c-4.7,0-9.32-1.55-12.82-3a102.21,102.21,0,0,1-32-20.34c-1.62-1.51-3.2-3.08-4.78-4.65-4.49-4.47-9.13-9.09-14.67-12.13-7-3.85-19.32-3.91-25.32,1.77a1.52,1.52,0,0,1-.9.35,2.84,2.84,0,0,1-2.12-1c-3-3.49-1.44-16.64-1.1-19.25a1.28,1.28,0,0,1,1.16-1.1c25.64-2,55.18,5,77.66,18.48l.37-1.65c-.13-7-.05-8.8,0-10.52s.14-3.45,0-10.53a1.27,1.27,0,0,1,1.34-1.29l33.62,1.9a1.28,1.28,0,0,1,1.17,1c3.24,13.68.69,28.24-1.95,40.8-2.21,10.53-6.55,17.23-12.91,19.9A17.21,17.21,0,0,1,323.85,244.86Zm-76.08-45.34a27.81,27.81,0,0,1,13,3c5.85,3.21,10.62,8,15.23,12.55,1.56,1.56,3.12,3.11,4.72,4.61A99.82,99.82,0,0,0,312,239.55c4.76,1.9,11.77,4.14,17.62,1.69,5.55-2.33,9.38-8.42,11.42-18.08,2.52-12,5-25.86,2.16-38.77l-31.3-1.78c.1,6,0,7.7,0,9.31s-.14,3.45,0,10.53a1.63,1.63,0,0,1,0,.31l-.8,3.52a1.27,1.27,0,0,1-.75.89,1.26,1.26,0,0,1-1.16-.09c-21.92-13.59-51.17-20.87-76.61-19.11-.68,5.94-.92,14.28.6,16.19C236.89,200.94,242.35,199.52,247.77,199.52Z"/><rect class="cls-8" x="81.28" y="238.48" width="333.14" height="16.62"/><path class="cls-8" d="M414.42,256.37H81.28A1.27,1.27,0,0,1,80,255.09V238.48a1.27,1.27,0,0,1,1.27-1.28H414.42a1.27,1.27,0,0,1,1.27,1.28v16.61A1.27,1.27,0,0,1,414.42,256.37ZM82.55,253.82h330.6V239.75H82.55Z"/><path class="cls-9" d="M311.51,240.73c5.93,2.37,12.7,4.16,18.59,1.68,7.21-3,10.55-11.33,12.16-19,.08-.36.15-.74.22-1.1-14.48,11.15-31,8.76-46.51-.37-8.36-4.9-18.65-9-27.08-11.88,3.77,3.37,7.27,7.12,11,10.58A101.78,101.78,0,0,0,311.51,240.73Z"/><path class="cls-9" d="M323.85,244.86c-4.7,0-9.32-1.55-12.82-3a102.21,102.21,0,0,1-32-20.34c-1.62-1.5-3.19-3.06-4.76-4.62-2-2-4.07-4-6.19-5.93l-4.71-4.21,6,2.06c11.06,3.82,20.25,7.85,27.3,12,17.2,10.09,32.37,10.25,45.1.45l2.73-2.1-.94,4.47c-2.21,10.53-6.55,17.23-12.91,19.9A17.21,17.21,0,0,1,323.85,244.86Zm-49.67-31.54,1.84,1.82c1.56,1.55,3.11,3.09,4.7,4.58A99.82,99.82,0,0,0,312,239.55h0c4.76,1.9,11.77,4.14,17.62,1.69,5.13-2.16,8.81-7.53,10.93-16-12.92,8.36-28.47,7.62-45.21-2.2A137.76,137.76,0,0,0,274.18,213.32Z"/><path class="cls-9" d="M310.59,181.27c.26,13.84-.26,7.41,0,20.11,4.66,3.83,9.43,7.46,9.31,6.07-.16-1.82.87-16.41,1.55-25.57Z"/><path class="cls-9" d="M319.61,209.07c-1,0-3.06-1.1-9.87-6.71l-.45-.38v-.58c-.11-6.2,0-7.9,0-9.55s.14-3.47,0-10.56l0-1.37,13.48.76-.09,1.29c-1.56,21.1-1.61,24.77-1.56,25.37a1.5,1.5,0,0,1-.78,1.51A1.43,1.43,0,0,1,319.61,209.07Zm-7.8-8.3a73.3,73.3,0,0,0,6.78,5.13c.1-3.3.58-11,1.46-22.82l-8.17-.47c.1,6,0,7.72,0,9.34S311.72,195.12,311.81,200.77Z"/><path class="cls-2" d="M322,214.09a1.65,1.65,0,0,1-1.35-.69c-3.83-5.36-10.82-9.45-10.89-9.5a1.65,1.65,0,1,1,1.66-2.85c.31.18,7.68,4.49,11.92,10.42a1.65,1.65,0,0,1-.39,2.31A1.61,1.61,0,0,1,322,214.09Z"/><path class="cls-2" d="M310.85,181.86h-.08a1.66,1.66,0,0,1-1.58-1.73c.21-4.32-.72-21.07-.73-21.24a1.65,1.65,0,1,1,3.3-.18c0,.7.95,17.09.74,21.57A1.66,1.66,0,0,1,310.85,181.86Z"/><path class="cls-7" d="M241.74,82.94c-.06,8.28.06,18.92,0,27.2,5.67,5.67,9.32,8.72,17.23,7.4,2.4-.41,9.77-1.64,11.06-3.71,1.09-1.77,1-4,.9-6.07-.42-6.89-.32-15.85-1.24-22.7H254.22Z"/><path class="cls-7" d="M255.58,119.11c-6.17,0-9.86-3.19-14.74-8.07l-.37-.38v-.53c0-4.14,0-8.86,0-13.59s0-9.47,0-13.61v-1.5l14,2.37H270.8l.15,1.1c.61,4.53.78,9.89.94,15.07.08,2.71.16,5.34.3,7.73s.18,4.76-1.08,6.8c-1.11,1.8-4.68,3.09-11.93,4.3A22.43,22.43,0,0,1,255.58,119.11ZM243,109.61c5.1,5.09,8.5,7.88,15.74,6.67,8.31-1.39,9.89-2.65,10.18-3.12.88-1.41.84-3.32.72-5.32-.15-2.41-.23-5.06-.32-7.8-.14-4.7-.29-9.54-.77-13.71H254.22L243,84.44c0,3.76,0,7.93,0,12.09C243,101.07,243,105.6,243,109.61Z"/><path class="cls-9" d="M269.69,85.06H254.22l-12.48-2.12c0,4.83,0,10.47,0,16,3.18,3,8,10.77,14.92,10.29,5.12-.35,9.87-7.12,13.95-9.2C270.46,94.9,270.29,89.53,269.69,85.06Z"/><path class="cls-9" d="M256,110.51c-5.75,0-9.93-4.79-13-8.33-.79-.91-1.5-1.73-2.15-2.34l-.39-.38V97.11c0-4.93,0-9.87,0-14.18v-1.5l14,2.37H270.8l.15,1.1c.61,4.58.79,10.16.94,15.08l0,.81-.72.36a25.66,25.66,0,0,0-4.61,3.58c-2.91,2.59-6.2,5.51-9.82,5.76ZM243,98.39c.59.6,1.22,1.33,1.91,2.11,3,3.47,6.8,7.77,11.65,7.45,2.76-.19,5.58-2.7,8.31-5.13a33,33,0,0,1,4.43-3.54c-.13-4.27-.29-9-.75-13H254.22L243,84.44c0,3.93,0,8.3,0,12.66Z"/><path class="cls-7" d="M278.37,53.1c.81,15.5-1.28,28.19-12,40.27-2.58,2.91-5.8,5.68-9.67,6-3.11.23-6.12-1.21-8.62-3.06-6.52-4.82-10.5-12.45-12.45-20.32s-2.06-6.26-2.15-14.36V53.1l4.42-10.64s22.89-6.67,27.23-6.78,14.73.85,14.73.85L278.37,53.1"/><path class="cls-7" d="M256,100.63a14.74,14.74,0,0,1-8.7-3.33c-7.82-5.77-11.35-14.62-12.93-21-.4-1.62-.73-2.83-1-3.81-1-3.95-1.13-4.41-1.2-10.84l.09-9L237,41.41l.59-.17c.94-.27,23.09-6.72,27.55-6.83s14.45.81,14.88.85l1.26.12-1.59,17.74c.69,13.37-.35,27.59-12.33,41.09-2.29,2.58-5.87,6.05-10.53,6.4ZM234.75,53.35V61.6c.07,6.26.13,6.48,1.12,10.21.26,1,.59,2.22,1,3.85,1.49,6,4.77,14.28,12,19.6,2.76,2,5.4,3,7.76,2.81,2.85-.21,5.65-2,8.82-5.54C276.82,79.67,277.77,66,277.1,53.16v-.08l1.38-15.4c-2.89-.24-10-.81-13.32-.73s-19.58,4.61-26.32,6.56Z"/><path class="cls-2" d="M239.26,50.56c2.32-2.7,6.26-3.31,9.82-3.22s7.2.69,10.63-.29a31.63,31.63,0,0,0,6.72-3.39,13.93,13.93,0,0,1,7.08-2.3c2.51.07,5.14,1.64,5.66,4.1a8.91,8.91,0,0,1-.66,4.56,8.28,8.28,0,0,0-.58,4.56c.39,1.5,2,2.81,3.45,2.3,1.14-.4,1.71-1.64,2.16-2.76,1.95-4.84,3.9-10.34,1.77-15.1-1.38-3.1-4.23-5.24-7-7.23l-9.93-7.25c-3.21-2.35-6.51-4.74-10.33-5.89s-8.31-.83-11.3,1.81c-3.31,2.94-4.14,8.07-7.7,10.72-3.33,2.48-8.29,2.17-11.22,5.11-2.14,2.14-2.57,5.46-2.31,8.48s1.09,6,1,9-.06,10.88,5.16,7.9C236,59.23,236.32,54,239.26,50.56Z"/><path class="cls-2" d="M229.67,64a3.77,3.77,0,0,1-1.93-.52c-2.7-1.61-2.9-6.33-2.82-9.73a29,29,0,0,0-.53-5.22c-.19-1.2-.38-2.41-.49-3.62-.25-2.94,0-7,2.79-9.79,1.88-1.89,4.31-2.6,6.66-3.29a15,15,0,0,0,4.75-2c1.57-1.17,2.57-3,3.63-5a19.06,19.06,0,0,1,4-5.63c3.13-2.76,8.06-3.59,12.87-2.15,4.13,1.24,7.69,3.84,10.83,6.13l9.93,7.25c2.63,1.92,5.9,4.31,7.5,7.89,2.36,5.28.43,11-1.74,16.4-.43,1.06-1.22,3-3.16,3.7a3.85,3.85,0,0,1-3.13-.3A5.06,5.06,0,0,1,276.33,55a9.59,9.59,0,0,1,.61-5.48,7.76,7.76,0,0,0,.62-3.7c-.36-1.68-2.36-2.74-4.09-2.78-2.12-.08-4.37,1-6.22,2.08l-1.23.72a25.19,25.19,0,0,1-5.86,2.82,25.41,25.41,0,0,1-8.58.48c-.85,0-1.7-.11-2.55-.13-4.06-.12-6.92.79-8.52,2.64a17.91,17.91,0,0,0-2.41,4.27c-1.17,2.57-2.49,5.48-5.55,7.23A5.87,5.87,0,0,1,229.67,64Zm24.16-44.32a8.84,8.84,0,0,0-6,2,16.43,16.43,0,0,0-3.24,4.71c-1.18,2.21-2.41,4.49-4.57,6.1A17.71,17.71,0,0,1,234.28,35c-2,.6-4,1.16-5.25,2.45-1.87,1.88-2,4.94-1.84,7.18.1,1.13.28,2.25.47,3.38a31.56,31.56,0,0,1,.56,5.82c-.13,5.71,1,6.67,1.22,6.81s.79,0,1.47-.38C233,59,234,57,235.09,54.53A20,20,0,0,1,238,49.48h0c2.28-2.65,6-3.93,11.11-3.79.88,0,1.77.07,2.66.13a22.21,22.21,0,0,0,7.47-.36A22.25,22.25,0,0,0,264.33,43l1.27-.75c2.25-1.29,5-2.62,7.95-2.52s6.51,2,7.24,5.41a10.4,10.4,0,0,1-.71,5.41,6.9,6.9,0,0,0-.54,3.64,1.75,1.75,0,0,0,.82,1.06.64.64,0,0,0,.48.09c.51-.18,1-1.28,1.17-1.81,1.91-4.75,3.62-9.73,1.79-13.82-1.24-2.78-4-4.79-6.43-6.57l-9.93-7.25c-3.07-2.24-6.25-4.56-9.84-5.63A13.24,13.24,0,0,0,253.83,19.68Z"/><path class="cls-7" d="M278.18,64.91a3.18,3.18,0,0,1,4.22-.61,4.32,4.32,0,0,1,1.69,4.15,6.82,6.82,0,0,1-2.32,4,16.85,16.85,0,0,1-4,2.47"/><path class="cls-7" d="M277.76,76.19a1.27,1.27,0,0,1-.54-2.42,15.28,15.28,0,0,0,3.7-2.27,5.57,5.57,0,0,0,1.91-3.23,3.07,3.07,0,0,0-1.13-2.92,1.91,1.91,0,0,0-2.49.3,1.28,1.28,0,0,1-2.07-1.49,4.44,4.44,0,0,1,6-.92,5.61,5.61,0,0,1,2.24,5.38,8.05,8.05,0,0,1-2.74,4.78,17.68,17.68,0,0,1-4.3,2.67A1.3,1.3,0,0,1,277.76,76.19Z"/><path class="cls-7" d="M233.5,68.26c-1.12-1.32-3.47-.93-4.48.47a4.92,4.92,0,0,0-.11,4.94,5.68,5.68,0,0,0,2.48,2.62,4,4,0,0,0,3.53.07"/><path class="cls-7" d="M233.27,78a5.4,5.4,0,0,1-2.45-.6,7,7,0,0,1-3-3.19A6.08,6.08,0,0,1,228,68a4.55,4.55,0,0,1,3.45-1.81,3.72,3.72,0,0,1,3,1.26,1.27,1.27,0,0,1-1.94,1.65,1.17,1.17,0,0,0-1-.36,1.94,1.94,0,0,0-1.49.75,3.7,3.7,0,0,0,0,3.63,4.46,4.46,0,0,0,1.9,2,2.72,2.72,0,0,0,2.39.08,1.27,1.27,0,1,1,1.16,2.26A4.88,4.88,0,0,1,233.27,78Z"/><ellipse class="cls-2" cx="246.39" cy="67.97" rx="3.86" ry="1.63" transform="translate(164.62 310.13) rotate(-86.76)"/><path class="cls-2" d="M246.21,73.1h-.11c-1.7-.09-2.77-2.27-2.61-5.28s1.47-5.1,3.19-5c.57,0,1.6.34,2.21,2a8.5,8.5,0,0,1,.39,3.25,8.41,8.41,0,0,1-.75,3.18C247.78,72.84,246.8,73.1,246.21,73.1Zm.3-7.31A6.06,6.06,0,0,0,246,68a5.94,5.94,0,0,0,.24,2.21,6.08,6.08,0,0,0,.48-2.17h0A6.14,6.14,0,0,0,246.51,65.79Z"/><ellipse class="cls-2" cx="266.49" cy="67.97" rx="3.86" ry="1.63" transform="translate(183.58 330.2) rotate(-86.76)"/><path class="cls-2" d="M266.31,73.1h-.11c-1.71-.09-2.78-2.27-2.61-5.28a8.65,8.65,0,0,1,.76-3.19c.79-1.61,1.88-1.8,2.43-1.77,1.7.1,2.77,2.27,2.6,5.29h0a8.4,8.4,0,0,1-.76,3.18C267.88,72.84,266.9,73.1,266.31,73.1Zm.3-7.31a6.06,6.06,0,0,0-.48,2.16,6,6,0,0,0,.23,2.21,5.86,5.86,0,0,0,.48-2.17A6,6,0,0,0,266.61,65.79Zm1.5,2.27h0Z"/><path class="cls-1" d="M226.57,53.79c-.07,2.93-.06,10.88,5.16,7.9,4.31-2.46,4.59-7.71,7.53-11.13,2.19-2.54,5.79-3.22,9.17-3.22a86.66,86.66,0,0,1-13.94-14.13c-2.42.73-4.89,1.33-6.63,3.08-2.14,2.14-2.57,5.46-2.31,8.48S226.64,50.76,226.57,53.79Z"/><path class="cls-1" d="M229.67,64a3.77,3.77,0,0,1-1.93-.52c-2.7-1.61-2.9-6.33-2.82-9.73h0a29,29,0,0,0-.53-5.22c-.19-1.2-.38-2.41-.49-3.62-.25-2.94,0-7,2.79-9.79,1.88-1.89,4.32-2.61,6.67-3.3l.66-.19a1.65,1.65,0,0,1,1.76.56,85.56,85.56,0,0,0,13.68,13.86,1.65,1.65,0,0,1-1,2.94h0c-3.73,0-6.39.89-7.9,2.64a17.71,17.71,0,0,0-2.41,4.27c-1.17,2.57-2.49,5.48-5.55,7.23A5.87,5.87,0,0,1,229.67,64Zm-1.45-10.17c-.13,5.71,1,6.67,1.22,6.81s.79,0,1.47-.38C233,59,234,57,235.09,54.53A20,20,0,0,1,238,49.48a10.86,10.86,0,0,1,6.32-3.42,89.21,89.21,0,0,1-10.44-11A11.21,11.21,0,0,0,229,37.45c-1.87,1.88-2,4.94-1.84,7.18.1,1.13.28,2.25.47,3.38a31.56,31.56,0,0,1,.56,5.82Z"/><path class="cls-2" d="M358.88,430.66a2.54,2.54,0,0,1-2.54-2.33L343.16,264.19a2.54,2.54,0,0,1,2.33-2.74,2.51,2.51,0,0,1,2.74,2.33l13.18,164.14a2.54,2.54,0,0,1-2.33,2.74Z"/><rect class="cls-5" x="116.49" y="144.71" width="114.87" height="79.13"/><path class="cls-5" d="M231.36,225.11H116.49a1.27,1.27,0,0,1-1.27-1.27V144.71a1.27,1.27,0,0,1,1.27-1.28H231.36a1.27,1.27,0,0,1,1.27,1.28v79.13A1.27,1.27,0,0,1,231.36,225.11Zm-113.6-2.54H230.09V146H117.76Z"/><rect class="cls-10" x="121.24" y="223.84" width="123.99" height="14.64"/><path class="cls-10" d="M245.23,239.75h-124a1.27,1.27,0,0,1-1.27-1.27V223.84a1.27,1.27,0,0,1,1.27-1.27h124a1.27,1.27,0,0,1,1.27,1.27v14.64A1.27,1.27,0,0,1,245.23,239.75ZM122.51,237.2H244V225.11H122.51Z"/><rect class="cls-11" x="121.24" y="223.84" width="110.12" height="3"/><path class="cls-11" d="M231.36,228.11H121.24a1.27,1.27,0,0,1-1.27-1.28v-3a1.27,1.27,0,0,1,1.27-1.27H231.36a1.27,1.27,0,0,1,1.27,1.27v3A1.27,1.27,0,0,1,231.36,228.11Zm-108.85-2.55H230.09v-.45H122.51Z"/><path class="cls-12" d="M196,157.53H145.51a2.54,2.54,0,1,1,0-5.08H196a2.54,2.54,0,0,1,0,5.08Z"/><path class="cls-12" d="M137,157.53H124.74a2.54,2.54,0,0,1,0-5.08H137a2.54,2.54,0,0,1,0,5.08Z"/><path class="cls-6" d="M231.36,223.82c-45.24-2.47-87-29.42-114.87-52.64v52.66H231.36Z"/><path class="cls-6" d="M232.63,225.11H115.22V168.47l2.09,1.73c27.06,22.52,68.83,49.87,114.12,52.35l1.2.07Zm-114.87-2.54h94.1c-37.19-7.56-70.71-29.57-94.1-48.7Z"/></svg>